<svg xmlns="http://www.w3.org/2000/svg" xmlns:xlink="http://www.w3.org/1999/xlink" xmlns:sketch="http://www.bohemiancoding.com/sketch/ns" viewBox="0 0 100 125" version="1.1" x="0px" y="0px"><title>puzzle</title><description>Created with Sketch (http://www.bohemiancoding.com/sketch)</description><g stroke="none" stroke-width="1" fill="none" fill-rule="evenodd" sketch:type="MSPage"><g sketch:type="MSArtboardGroup" fill="#000000"><path d="M21.9942975,65.3354976 C21.9942975,61.3384985 21.7647796,60.0055378 20.9308975,58.9474531 C19.3021661,56.8877651 16.9140698,60.2220498 11.9462616,60.2220498 C6.45328517,60.2220498 2,55.4945575 2,49.6637961 C2,43.8330344 6.45505938,39.107425 11.9498101,39.107425 C16.9140698,39.107425 19.3039404,42.4435922 20.9326717,40.3820216 C21.7665538,39.323937 21.9551724,37.9909763 21.9551724,33.9939771 L21.9551724,10 L97,10 L97,89 L68.1984752,88.977687 C66.2557073,87.2493565 69.3996201,83.7133425 69.3996201,78.4455117 C69.3996201,72.6147503 64.9463348,67.8872584 59.4515842,67.8872584 C53.9568336,67.8872584 49.5017742,72.6128674 49.5017742,78.4417463 C49.5017742,83.7133425 52.6439129,86.247474 50.7029191,87.9758042 C49.7058091,88.8606791 48.4496633,88.9981172 44.6830005,88.9981172 L21.9942975,88.9981172 L21.9942975,65.3354976 Z" sketch:type="MSShapeGroup" transform="translate(49.500000, 49.500000) scale(-1, 1) rotate(90.000000) translate(-49.500000, -49.500000) "/></g></g><text x="0" y="115" fill="#000000" font-size="5px" font-weight="bold" font-family="'Helvetica Neue', Helvetica, Arial-Unicode, Arial, Sans-serif">Created by Nathanael Siering</text><text x="0" y="120" fill="#000000" font-size="5px" font-weight="bold" font-family="'Helvetica Neue', Helvetica, Arial-Unicode, Arial, Sans-serif">from the Noun Project</text></svg>