<svg xmlns="http://www.w3.org/2000/svg" 
    xmlns:xlink="http://www.w3.org/1999/xlink" version="1.1" x="0px" y="0px" viewBox="0 0 64 80" style="enable-background:new 0 0 64 64;" xml:space="preserve">
    <g>
        <polygon points="37,45 35,45 35,43 33,43 33,45 31,45 31,43 29,43 29,45 27,45 27,43 25,43 25,49 27,49 27,47 29,47 29,49 31,49    31,47 33,47 33,49 35,49 35,47 37,47 37,49 39,49 39,43 37,43  "/>
        <path d="M28.671,30.742C29.528,29.886,30,28.746,30,27.535C30,25.034,27.965,23,25.464,23h-2.419C20.263,23,18,25.263,18,28.045   c0,0.779,0.184,1.56,0.533,2.257l0.502,1.004C19.866,32.968,21.537,34,23.395,34c1.302,0,2.526-0.507,3.447-1.428L28.671,30.742z    M23.395,32c-1.096,0-2.082-0.608-2.571-1.589l-0.502-1.004C20.111,28.986,20,28.516,20,28.045C20,26.366,21.366,25,23.045,25   h2.419C26.862,25,28,26.138,28,27.535c0,0.677-0.264,1.313-0.743,1.793l-1.83,1.83C24.885,31.701,24.163,32,23.395,32z"/>
        <path d="M44.965,31.306l0.502-1.004C45.816,29.604,46,28.824,46,28.045C46,25.263,43.737,23,40.955,23h-2.419   C36.035,23,34,25.034,34,27.535c0,1.211,0.472,2.351,1.329,3.207l1.83,1.83C38.079,33.493,39.303,34,40.605,34   C42.463,34,44.134,32.968,44.965,31.306z M43.678,29.407l-0.502,1.004C42.687,31.392,41.701,32,40.605,32   c-0.768,0-1.49-0.299-2.033-0.842l-1.83-1.83C36.264,28.849,36,28.212,36,27.535C36,26.138,37.138,25,38.536,25h2.419   C42.634,25,44,26.366,44,28.045C44,28.516,43.889,28.986,43.678,29.407z"/>
        <path d="M59,51c-0.458,0-0.913,0.082-1.346,0.239l-11.721-11.72C48.418,37.892,50,35.095,50,32v-2.319c1.327-2.743,2-5.663,2-8.681   c0-0.822-0.065-1.628-0.162-2.424l5.816-5.816C58.087,12.918,58.542,13,59,13c2.206,0,4-1.794,4-4s-1.794-4-4-4   c0-2.206-1.794-4-4-4s-4,1.794-4,4c0,0.457,0.082,0.912,0.24,1.346l-3.011,3.011C44.595,4.307,38.683,1,32,1   S19.405,4.307,15.771,9.357L12.76,6.346C12.918,5.912,13,5.457,13,5c0-2.206-1.794-4-4-4S5,2.794,5,5C2.794,5,1,6.794,1,9   s1.794,4,4,4c0.457,0,0.912-0.082,1.346-0.24l5.816,5.816C12.065,19.372,12,20.178,12,21c0,3.018,0.673,5.938,2,8.681V32   c0,3.095,1.582,5.892,4.067,7.519L6.346,51.24C5.912,51.082,5.457,51,5,51c-2.206,0-4,1.794-4,4s1.794,4,4,4c0,2.206,1.794,4,4,4   s4-1.794,4-4c0-0.457-0.082-0.912-0.24-1.346l7.365-7.365C20.732,53.535,23.581,56,27,56h10c3.419,0,6.268-2.465,6.876-5.71   l7.365,7.365C51.082,58.088,51,58.543,51,59c0,2.206,1.794,4,4,4s4-1.794,4-4c2.206,0,4-1.794,4-4S61.206,51,59,51z M53.709,6.706   L53.3,6.034C53.101,5.708,53,5.36,53,5c0-1.103,0.897-2,2-2s2,0.897,2,2c0,0.253-0.064,0.506-0.17,0.756l-0.537,0.537l1.414,1.414   l0.531-0.531C59.579,6.61,61,7.643,61,9c0,1.103-0.897,2-2,2c-0.361,0-0.708-0.101-1.033-0.299l-0.671-0.41l-5.904,5.903   c-0.451-1.817-1.142-3.536-2.052-5.119L53.709,6.706z M12.608,16.194l-5.903-5.903l-0.672,0.41C5.708,10.899,5.36,11,5,11   c-1.103,0-2-0.897-2-2c0-1.356,1.421-2.388,2.762-1.824l0.531,0.531l1.414-1.414L7.17,5.756C7.064,5.506,7,5.253,7,5   c0-1.103,0.897-2,2-2s2,0.897,2,2c0,0.36-0.101,0.708-0.3,1.034l-0.409,0.672l4.37,4.369C13.75,12.659,13.059,14.377,12.608,16.194   z M10.291,57.294l0.409,0.672C10.899,58.292,11,58.64,11,59c0,1.103-0.897,2-2,2s-2-0.897-2-2c0-0.253,0.064-0.506,0.17-0.756   l0.537-0.537l-1.414-1.414l-0.531,0.531C4.419,57.389,3,56.356,3,55c0-1.103,0.897-2,2-2c0.36,0,0.708,0.101,1.033,0.299   l0.672,0.41L19.954,40.46c0.016,0.006,0.03,0.013,0.046,0.018v7.107L10.291,57.294z M42,49c0,2.757-2.243,5-5,5H27   c-2.757,0-5-2.243-5-5V38.964l-0.75-0.194C18.159,37.973,16,35.188,16,32v-2.787l-0.105-0.21C14.638,26.477,14,23.784,14,21   c0-9.925,8.075-18,18-18s18,8.075,18,18c0,2.784-0.638,5.477-1.895,8.003L48,29.213V32c0,3.188-2.159,5.973-5.25,6.77L42,38.964V49   z M58.238,56.824l-0.531-0.531l-1.414,1.414l0.537,0.537C56.936,58.494,57,58.747,57,59c0,1.103-0.897,2-2,2s-2-0.897-2-2   c0-0.36,0.101-0.708,0.3-1.034l0.409-0.672L44,47.586v-7.107c0.016-0.006,0.03-0.013,0.046-0.018l13.249,13.249l0.671-0.41   C58.292,53.101,58.639,53,59,53c1.103,0,2,0.897,2,2C61,56.356,59.581,57.391,58.238,56.824z"/>
        <rect x="31" y="19" width="2" height="2"/>
        <rect x="35" y="19" width="2" height="2"/>
        <rect x="27" y="19" width="2" height="2"/>
    </g>
</svg>